HIERARCHY
ROOT Hips
{
	OFFSET 0.000000 89.005402 0.000000
	CHANNELS 6 Xposition Yposition Zposition Xrotation Yrotation Zrotation
	JOINT Spine
	{
		OFFSET 0.116900 10.681000 0.373400
		CHANNELS 3 Xrotation Yrotation Zrotation
		JOINT Spine1
		{
			OFFSET 0.000000 13.840401 0.053500
			CHANNELS 3 Xrotation Yrotation Zrotation
			JOINT Spine2
			{
				OFFSET 0.000000 14.712700 -0.366200
				CHANNELS 3 Xrotation Yrotation Zrotation
				JOINT Neck
				{
					OFFSET 0.000000 35.415497 -3.314200
					CHANNELS 3 Xrotation Yrotation Zrotation
					JOINT Head
					{
						OFFSET 0.000000 16.899200 1.218300
						CHANNELS 3 Xrotation Yrotation Zrotation
						JOINT HeadTop_End
						{
							OFFSET 0.000000 22.206207 2.192500
							CHANNELS 3 Xrotation Yrotation Zrotation
							End Site
							{
								OFFSET 0.000000 22.314178 0.000000
							}
						}
					}
				}
				JOINT LeftShoulder
				{
					OFFSET 12.896400 26.716293 -4.548400
					CHANNELS 3 Xrotation Yrotation Zrotation
					JOINT LeftArm
					{
						OFFSET 19.027000 -4.857010 -1.718400
						CHANNELS 3 Xrotation Yrotation Zrotation
						JOINT LeftForeArm
						{
							OFFSET 24.179897 0.000000 0.000000
							CHANNELS 3 Xrotation Yrotation Zrotation
							JOINT LeftHand
							{
								OFFSET 27.156403 0.000000 0.000000
								CHANNELS 3 Xrotation Yrotation Zrotation
								JOINT LeftHandIndex1
								{
									OFFSET 16.441200 0.000000 0.000000
									CHANNELS 3 Xrotation Yrotation Zrotation
									JOINT LeftHandIndex2
									{
										OFFSET 4.821899 0.000000 0.000000
										CHANNELS 3 Xrotation Yrotation Zrotation
										JOINT LeftHandIndex3
										{
											OFFSET 6.386497 0.000000 0.000000
											CHANNELS 3 Xrotation Yrotation Zrotation
											JOINT LeftHandIndex4
											{
												OFFSET 5.188988 0.000000 0.000000
												CHANNELS 3 Xrotation Yrotation Zrotation
												End Site
												{
													OFFSET -0.178703 5.185913 0.000177
												}
											}
										}
									}
								}
								JOINT LeftHandThumb1
								{
									OFFSET 6.534897 -5.032593 5.900300
									CHANNELS 3 Xrotation Yrotation Zrotation
									JOINT LeftHandThumb2
									{
										OFFSET 3.818176 -2.204422 2.204423
										CHANNELS 3 Xrotation Yrotation Zrotation
										JOINT LeftHandThumb3
										{
											OFFSET 3.252098 -1.877594 1.877601
											CHANNELS 3 Xrotation Yrotation Zrotation
											JOINT LeftHandThumb4
											{
												OFFSET 5.251778 -3.032120 3.032117
												CHANNELS 3 Xrotation Yrotation Zrotation
												End Site
												{
													OFFSET 0.000023 6.780014 0.000000
												}
											}
										}
									}
								}
							}
						}
					}
				}
				JOINT RightShoulder
				{
					OFFSET -12.896300 26.716293 -4.548400
					CHANNELS 3 Xrotation Yrotation Zrotation
					JOINT RightArm
					{
						OFFSET -19.027000 -4.857010 -1.718400
						CHANNELS 3 Xrotation Yrotation Zrotation
						JOINT RightForeArm
						{
							OFFSET -24.179897 0.000000 0.000000
							CHANNELS 3 Xrotation Yrotation Zrotation
							JOINT RightHand
							{
								OFFSET -27.156403 0.000000 0.000000
								CHANNELS 3 Xrotation Yrotation Zrotation
								JOINT RightHandThumb1
								{
									OFFSET -6.591202 -4.852203 5.988100
									CHANNELS 3 Xrotation Yrotation Zrotation
									JOINT RightHandThumb2
									{
										OFFSET -3.818176 -2.204422 2.204423
										CHANNELS 3 Xrotation Yrotation Zrotation
										JOINT RightHandThumb3
										{
											OFFSET -3.252098 -1.877594 1.877601
											CHANNELS 3 Xrotation Yrotation Zrotation
											JOINT RightHandThumb4
											{
												OFFSET -5.251778 -3.032120 3.032117
												CHANNELS 3 Xrotation Yrotation Zrotation
												End Site
												{
													OFFSET -0.000023 6.780014 0.000000
												}
											}
										}
									}
								}
								JOINT RightHandIndex1
								{
									OFFSET -16.029404 0.000000 0.000000
									CHANNELS 3 Xrotation Yrotation Zrotation
									JOINT RightHandIndex2
									{
										OFFSET -5.213303 0.000000 0.000000
										CHANNELS 3 Xrotation Yrotation Zrotation
										JOINT RightHandIndex3
										{
											OFFSET -6.386528 0.000000 0.000000
											CHANNELS 3 Xrotation Yrotation Zrotation
											JOINT RightHandIndex4
											{
												OFFSET -5.189026 0.000000 0.000000
												CHANNELS 3 Xrotation Yrotation Zrotation
												End Site
												{
													OFFSET 0.236702 5.183624 0.001972
												}
											}
										}
									}
								}
							}
						}
					}
				}
			}
		}
	}
	JOINT LeftUpLeg
	{
		OFFSET 14.073000 -7.904099 -1.463000
		CHANNELS 3 Xrotation Yrotation Zrotation
		JOINT LeftLeg
		{
			OFFSET -0.109806 -34.073280 4.093200
			CHANNELS 3 Xrotation Yrotation Zrotation
			JOINT LeftFoot
			{
				OFFSET 0.109806 -29.899420 -6.319000
				CHANNELS 3 Xrotation Yrotation Zrotation
				JOINT LeftToeBase
				{
					OFFSET 1.551100 -14.988700 20.535801
					CHANNELS 3 Xrotation Yrotation Zrotation
					JOINT LeftToe_End
					{
						OFFSET 0.221200 0.570800 13.248301
						CHANNELS 3 Xrotation Yrotation Zrotation
						End Site
						{
							OFFSET 0.000000 13.262435 0.000000
						}
					}
				}
			}
		}
	}
	JOINT RightUpLeg
	{
		OFFSET -13.839300 -7.904099 -1.463000
		CHANNELS 3 Xrotation Yrotation Zrotation
		JOINT RightLeg
		{
			OFFSET 0.109694 -34.073219 4.093300
			CHANNELS 3 Xrotation Yrotation Zrotation
			JOINT RightFoot
			{
				OFFSET -0.109694 -29.899384 -6.319200
				CHANNELS 3 Xrotation Yrotation Zrotation
				JOINT RightToeBase
				{
					OFFSET -1.551100 -14.988700 20.535801
					CHANNELS 3 Xrotation Yrotation Zrotation
					JOINT RightToe_End
					{
						OFFSET -0.221200 0.570900 13.248299
						CHANNELS 3 Xrotation Yrotation Zrotation
						End Site
						{
							OFFSET 0.000000 13.262440 0.000000
						}
					}
				}
			}
		}
	}
}
MOTION
Frames: 7
Frame Time: 0.033333
-0.066395 37.095177 3.726086 -24.399700 -0.256260 0.341882 1.574006 0.037666 -0.199217 3.148187 0.139972 -0.347373 3.148186 0.139972 -0.347374 15.002724 -0.211771 -0.767418 4.707767 1.991600 0.648210 0.000000 0.000000 0.000000 0.002772 -10.251613 -0.420599 -7.024392 -8.274866 -66.204914 10.438788 -73.461280 7.141409 20.327249 -4.921702 33.300434 2.024338 7.924643 -50.661699 -3.419065 4.272757 -78.275518 0.000001 0.000007 -0.000001 -0.000000 0.000000 0.000000 -3.726377 15.150697 -2.422724 2.653714 -0.284521 -3.726807 0.000001 0.000011 -0.000009 0.000002 0.000000 -0.000002 3.921737 18.156147 1.922599 -18.321870 13.708913 62.178531 9.738790 70.967885 -11.050274 49.641159 -5.748216 -34.246309 9.335622 -16.075904 0.797385 3.761736 -0.531229 3.906071 0.000001 -0.000005 -0.000007 -0.000000 0.000001 0.000000 8.418908 -19.088186 40.616813 -1.778858 -6.306706 97.693794 0.000009 0.000003 -0.000008 0.000001 0.000002 0.000001 -84.840177 13.659790 16.450097 55.338920 9.884872 -1.344922 10.944519 -27.738652 9.651530 -0.000006 -0.000012 0.000050 -0.000001 -0.000000 -0.000000 -85.931027 0.185626 -3.522170 62.268553 2.504977 2.209119 8.477457 -8.105226 -5.219932 0.000004 -0.000002 -0.000000 0.000002 0.000000 -0.000000 
-0.061773 37.070900 3.726463 -24.395288 -0.224893 0.246306 1.594798 0.041761 -0.252265 3.189785 0.128217 -0.466431 3.189775 0.128217 -0.466431 15.211060 -0.164525 -0.370939 4.947204 2.226034 0.433570 -0.000000 0.000000 0.000000 0.040240 -10.359055 -0.472132 -6.919303 -8.804806 -65.497812 9.135687 -73.961359 5.724579 19.316967 -4.504272 33.915793 1.895361 7.878489 -49.837169 -3.406354 4.275288 -79.018520 0.000002 0.000004 -0.000002 -0.000001 -0.000003 -0.000000 -3.997121 15.038217 -2.258175 2.601427 -0.276091 -3.660397 0.000003 0.000007 -0.000006 0.000002 -0.000001 -0.000000 3.921733 18.156149 1.922599 -18.324592 13.571741 62.144415 9.377899 70.998020 -10.664611 49.416559 -5.632321 -34.481940 8.650616 -16.661502 0.863633 3.896841 -0.439794 3.990611 0.000001 -0.000007 -0.000009 0.000000 -0.000000 -0.000000 8.233303 -18.471868 40.569333 -1.920484 -6.303912 99.317972 0.000009 0.000006 -0.000008 -0.000000 -0.000001 0.000000 -85.091911 13.608471 16.526973 55.762228 9.815037 -1.345448 10.767531 -27.779506 9.619924 -0.118030 -0.070230 -0.300817 0.000003 0.000000 -0.000000 -85.923848 0.241144 -3.426932 62.258882 2.432571 2.207738 8.449712 -8.230503 -5.150556 -0.005610 -0.034878 0.115563 0.000001 -0.000000 0.000000 
-0.080334 37.065102 3.729088 -24.377377 -0.219568 0.238089 1.599947 0.037592 -0.263389 3.200135 0.121897 -0.487100 3.200121 0.121897 -0.487100 15.214882 -0.150302 -0.404111 4.975154 2.257620 0.474408 -0.000000 -0.000000 0.000000 0.044258 -10.354165 -0.473302 -6.900782 -8.820254 -65.392573 7.765159 -74.087847 4.411012 18.568907 -4.730376 34.277072 1.765915 7.829920 -49.001276 -3.394669 4.223861 -79.141559 0.000002 0.000004 -0.000002 -0.000001 0.000007 0.000000 -4.268882 14.922927 -2.094838 2.551465 -0.268891 -3.593676 0.000003 0.000010 -0.000007 -0.000005 -0.000001 -0.000002 3.921736 18.156149 1.922599 -18.323873 13.606493 62.153096 9.380440 71.042799 -10.663927 49.348257 -5.662610 -34.505347 8.637177 -16.694323 0.834789 3.818248 -0.533092 3.939171 0.000000 -0.000006 -0.000010 0.000000 0.000000 0.000003 8.242613 -18.496706 40.571897 -1.930495 -6.303638 99.459493 0.000008 0.000004 -0.000008 0.000000 -0.000000 0.000000 -85.117100 13.567749 16.525921 55.769649 9.797361 -1.346145 10.747774 -27.735293 9.610261 -0.090140 -0.072736 -0.296267 0.000001 -0.000000 -0.000000 -85.951449 0.265836 -3.379680 62.264421 2.412953 2.206194 8.483306 -8.320146 -5.152691 -0.006037 -0.037598 0.124877 0.000004 0.000000 0.000000 
-0.085649 37.043396 3.731342 -24.340755 -0.214146 0.234476 1.607765 0.034041 -0.267870 3.215776 0.121383 -0.492196 3.215779 0.121383 -0.492196 15.196829 -0.150022 -0.444056 4.923842 2.215579 0.543227 0.000000 -0.000000 0.000000 0.044793 -10.367198 -0.475901 -6.852457 -8.965912 -65.186936 6.388894 -74.245638 3.086545 17.652820 -4.900463 34.740733 1.641616 7.780669 -48.188702 -3.383118 4.167697 -79.203898 0.000004 0.000002 -0.000000 0.000001 -0.000002 0.000000 -4.538925 14.809571 -1.933114 2.475678 -0.248047 -3.539455 0.000001 0.000008 -0.000007 0.000001 0.000000 -0.000000 3.921737 18.156147 1.922599 -18.318685 13.592166 62.139620 9.503433 71.195146 -10.780126 49.361220 -5.705415 -34.447000 8.668667 -16.826294 0.832945 3.624303 -0.748580 3.810799 -0.000000 -0.000005 -0.000010 0.000000 -0.000000 0.000004 8.256305 -18.523444 40.584653 -1.923854 -6.290428 99.605072 0.000008 0.000004 -0.000008 0.000001 -0.000000 0.000000 -85.189876 13.527201 16.521476 55.805432 9.747984 -1.356374 10.639284 -27.620032 9.546735 -0.043233 -0.066677 -0.290009 -0.000001 -0.000000 -0.000000 -86.061695 0.290931 -3.390194 62.348555 2.414657 2.204297 8.448398 -8.354992 -5.030011 -0.006126 -0.038711 0.126341 0.000003 0.000000 0.000000 
-0.080183 37.020729 3.729332 -24.262770 -0.191287 0.254675 1.624431 0.046750 -0.281423 3.249139 0.150827 -0.517265 3.249144 0.150827 -0.517265 15.102045 -0.155405 -0.550860 4.865819 2.099759 0.642295 -0.000000 -0.000000 -0.000000 0.036755 -10.430396 -0.499424 -6.777575 -9.267126 -64.871115 4.971940 -74.470154 1.714475 16.643453 -5.016634 35.267060 1.527767 7.732626 -47.434137 -3.372233 4.111816 -79.229149 0.000003 0.000005 -0.000001 -0.000001 -0.000002 -0.000001 -4.804518 14.702950 -1.773216 2.338039 -0.194248 -3.516451 -0.000000 0.000009 -0.000005 0.000000 0.000000 -0.000001 3.921735 18.156147 1.922598 -18.224193 13.454630 62.044352 9.788254 71.569215 -11.041219 49.355654 -5.820501 -34.370079 9.023552 -17.631421 0.964227 2.809285 -1.622454 3.269262 0.000001 -0.000005 -0.000011 -0.000001 0.000001 0.000002 8.146375 -18.486966 40.316988 -1.914773 -6.293648 99.543238 0.000009 0.000005 -0.000008 0.000001 0.000001 0.000000 -85.236724 13.347067 16.393318 55.801348 9.658998 -1.378208 10.433560 -27.260697 9.363106 0.088214 -0.061887 -0.281342 -0.000003 -0.000000 0.000000 -86.244047 0.345017 -3.408569 62.453556 2.424680 2.204698 8.468991 -8.529703 -4.907193 -0.006024 -0.039198 0.124834 -0.000003 -0.000001 -0.000000 
-0.053892 36.969528 3.742710 -24.122792 -0.188855 0.321571 1.668517 0.039023 -0.300115 3.337293 0.124818 -0.561470 3.337294 0.124818 -0.561470 14.956960 -0.118334 -0.669143 4.591541 2.154088 0.698545 0.000000 -0.000000 0.000000 0.034284 -10.443238 -0.507280 -6.497089 -9.726264 -64.217411 3.536216 -75.132443 0.304175 15.334630 -4.888554 36.012821 1.478528 7.704402 -47.090387 -3.367572 4.090930 -79.292322 0.000001 0.000010 -0.000001 0.000000 -0.000001 -0.000000 -5.038197 14.651458 -1.617806 1.759077 0.096008 -3.712810 0.000002 0.000010 -0.000008 -0.000000 -0.000002 0.000001 3.921738 18.156149 1.922599 -18.181274 13.474395 61.869588 10.337735 72.183133 -11.469202 49.236337 -6.063906 -34.244912 10.074153 -19.883053 1.286330 0.701276 -3.871628 1.876251 0.000002 -0.000003 -0.000010 -0.000000 0.000001 0.000004 7.293362 -19.238795 37.032784 -1.923581 -6.396912 97.014197 0.000008 0.000005 -0.000008 0.000002 -0.000001 -0.000001 -85.268416 13.024328 16.168624 55.624869 9.568854 -1.407738 10.523757 -26.723281 9.132157 0.189531 -0.058234 -0.272958 0.000001 -0.000000 -0.000000 -86.538292 0.392386 -3.479916 62.546911 2.479513 2.226976 8.486291 -8.662669 -4.810629 -0.005961 -0.039214 0.122745 0.000003 0.000001 0.000000 
-0.039363 36.900330 3.764709 -23.822921 -0.181509 0.327617 1.754123 0.033327 -0.359792 3.508494 0.093136 -0.692286 3.508497 0.093136 -0.692286 14.745711 -0.070888 -0.746963 4.101157 2.244785 0.862405 0.000000 -0.000000 0.000000 0.061331 -10.177802 -0.424540 -6.275357 -10.364724 -63.571501 1.926651 -76.352267 -1.364666 14.268371 -4.520051 36.660129 1.405799 7.752944 -46.546657 -3.366032 4.081776 -79.498737 0.000003 0.000007 -0.000000 0.000000 0.000002 0.000001 -4.912082 14.738749 -1.632181 1.087537 0.435505 -3.926047 0.000001 0.000010 -0.000007 -0.000004 -0.000000 -0.000000 3.921735 18.156149 1.922599 -17.985713 13.313754 61.580897 11.400154 73.422211 -12.355846 48.965435 -6.420679 -34.161003 10.110233 -21.408880 0.446810 -1.118372 -6.660147 0.339892 -0.000000 -0.000007 -0.000007 0.000000 -0.000000 0.000001 3.602389 -20.966469 30.969509 -4.183821 -5.385930 80.644604 0.000008 0.000006 -0.000010 -0.000001 -0.000000 -0.000000 -85.543133 12.874895 16.133600 55.316824 9.432580 -1.438794 10.924475 -26.382531 9.084014 0.292475 -0.055650 -0.265332 0.000001 -0.000000 -0.000000 -86.968491 0.402238 -3.476726 62.595672 2.480990 2.220923 8.488859 -8.776860 -4.759383 -0.005936 -0.038828 0.122006 -0.000001 0.000000 0.000000 
